<?xml version="1.0" standalone="no"?>
<!DOCTYPE svg PUBLIC "-//W3C//DTD SVG 20010904//EN"
 "http://www.w3.org/TR/2001/REC-SVG-20010904/DTD/svg10.dtd">
<svg version="1.0" xmlns="http://www.w3.org/2000/svg"
 width="1024.000000pt" height="1024.000000pt" viewBox="0 0 1024.000000 1024.000000"
 preserveAspectRatio="xMidYMid meet">

<g transform="translate(0.000000,1024.000000) scale(0.100000,-0.100000)"
fill="#000000" stroke="none">
<path d="M5315 9153 c-66 -41 -212 -130 -325 -196 -113 -66 -437 -260 -720
-430 -283 -170 -613 -368 -733 -440 l-217 -130 2 -686 3 -685 340 -214 c187
-117 389 -244 448 -281 l108 -69 -228 -139 c-125 -76 -328 -199 -451 -273
l-222 -133 2 -590 3 -590 160 -95 c88 -52 246 -148 350 -212 105 -64 244 -149
310 -187 66 -39 234 -140 374 -226 l254 -156 56 38 c31 21 124 79 206 130 83
51 184 114 225 140 41 27 284 177 540 334 256 156 562 345 680 419 118 74 262
164 320 199 l105 65 0 699 0 699 -110 67 c-60 37 -247 150 -415 251 -168 102
-305 190 -305 196 0 5 131 92 290 193 160 100 347 218 418 262 l127 80 0 597
0 597 -122 70 c-135 78 -425 244 -673 388 -280 161 -672 385 -676 385 -2 0
-58 -35 -124 -77z m126 -1955 l0 -503 400 -238 c219 -131 399 -242 399 -246 0
-5 -105 -73 -232 -151 -128 -79 -308 -190 -400 -247 l-168 -104 0 -207 0 -207
-193 -117 c-105 -65 -237 -145 -292 -179 -55 -34 -140 -86 -190 -116 l-90 -54
-3 458 -3 458 -114 69 c-67 39 -112 72 -108 79 3 6 1 7 -5 3 -10 -6 -215 114
-208 122 2 1 46 -23 97 -54 52 -32 102 -57 112 -56 9 0 17 -3 17 -8 0 -4 11
-3 25 3 28 13 31 26 13 47 -11 12 -10 12 3 2 11 -8 19 -8 26 -1 9 9 36 16 81
21 6 1 12 11 13 22 0 21 1 21 9 1 l9 -20 1 20 c2 11 2 23 1 28 0 4 4 7 10 7 6
0 9 -7 5 -15 -4 -12 -2 -13 13 -3 22 14 45 48 32 48 -6 0 -14 -7 -19 -15 -7
-14 -11 -12 -27 7 -11 13 -13 17 -5 11 21 -19 35 -16 19 4 -12 15 -12 16 1 8
8 -5 21 -10 29 -10 16 0 25 -35 10 -35 -6 0 -7 -4 -4 -10 3 -5 11 -10 17 -10
6 0 8 3 4 7 -10 11 55 72 70 66 11 -4 12 -9 4 -18 -8 -9 -6 -14 4 -18 9 -4 13
-1 10 6 -2 7 6 13 21 13 19 2 38 -12 77 -55 28 -31 41 -41 28 -23 -79 116
-209 185 -409 216 l-76 12 70 7 c136 13 269 61 349 126 77 62 79 58 -65 146
l-129 79 0 337 0 336 198 119 c108 65 276 167 372 226 96 59 178 108 183 108
4 0 7 -226 8 -502z m-701 -1063 c33 -19 21 -19 -21 0 -19 8 -27 14 -19 14 8 0
26 -6 40 -14z m95 -55 c9 -14 -7 -12 -29 5 -14 10 -24 12 -40 4 -19 -9 -19 -9
-4 4 10 8 14 17 10 22 -4 4 7 0 25 -9 17 -9 35 -20 38 -26z m-104 -33 c-10 -9
-11 -8 -5 6 3 10 9 15 12 12 3 -3 0 -11 -7 -18z m-135 -63 c-23 -17 -36 -18
-36 -3 0 5 4 8 9 4 6 -3 16 1 23 9 7 8 15 12 18 9 3 -2 -4 -11 -14 -19z m-120
-54 c0 -13 -5 -19 -14 -15 -7 3 -16 5 -20 5 -3 0 3 7 14 15 10 8 19 15 19 15
1 0 1 -9 1 -20z"/>
<path d="M4556 5938 c3 -5 10 -6 15 -3 13 9 11 12 -6 12 -8 0 -12 -4 -9 -9z"/>
<path d="M4971 5930 c14 -31 19 -36 19 -24 0 6 -7 19 -16 30 -14 18 -14 18 -3
-6z"/>
<path d="M4520 5929 c0 -5 5 -7 10 -4 6 3 10 8 10 11 0 2 -4 4 -10 4 -5 0 -10
-5 -10 -11z"/>
<path d="M1990 2948 l0 -84 -68 -10 c-133 -21 -248 -98 -305 -202 -55 -101
-58 -247 -7 -355 43 -92 159 -169 309 -205 l71 -17 0 -174 0 -173 -27 7 c-81
20 -134 66 -154 135 l-12 40 -91 0 c-50 0 -108 -3 -130 -7 l-38 -6 5 -55 c11
-108 92 -229 193 -288 55 -32 163 -64 216 -64 l38 0 0 -82 0 -83 85 0 85 0 0
83 0 82 28 0 c39 0 127 27 186 57 274 139 285 523 19 656 -46 23 -148 59 -205
71 l-28 6 0 165 c0 182 0 183 61 142 28 -18 67 -75 81 -119 5 -14 248 12 248
26 0 31 -33 133 -56 171 -54 92 -159 163 -276 186 l-58 12 0 82 0 82 -85 2
-85 2 0 -83z m0 -479 l0 -150 -22 6 c-76 23 -119 72 -125 142 -3 36 1 56 17
81 19 30 86 71 118 72 9 0 12 -37 12 -151z m240 -449 c131 -67 106 -258 -37
-286 l-33 -6 0 156 c0 175 -1 172 70 136z"/>
<path d="M5600 2854 c-89 -19 -213 -82 -282 -143 -143 -129 -220 -344 -205
-580 13 -208 76 -362 196 -481 123 -122 255 -173 446 -172 254 1 453 118 554
324 64 129 75 188 76 373 0 187 -9 232 -72 363 -101 212 -306 333 -563 331
-47 0 -114 -7 -150 -15z m247 -249 c139 -41 233 -177 253 -366 17 -168 -18
-311 -98 -400 -67 -75 -144 -109 -243 -109 -107 0 -162 21 -229 89 -63 63 -96
125 -116 220 -25 122 -12 270 35 375 23 52 102 141 146 164 82 43 168 52 252
27z"/>
<path d="M2790 2173 l0 -673 140 0 140 0 0 218 0 219 133 2 c161 2 249 20 344
66 123 61 193 163 215 313 37 253 -88 450 -325 509 -61 15 -118 18 -359 18
l-288 0 0 -672z m591 399 c43 -22 59 -38 82 -82 25 -48 28 -63 24 -113 -7 -75
-47 -142 -102 -171 -34 -18 -62 -22 -177 -24 l-138 -4 0 211 0 211 129 0 c121
0 132 -2 182 -28z"/>
<path d="M3950 2173 l0 -673 138 0 137 0 -3 235 -3 235 99 0 99 0 123 -235
123 -235 154 0 c84 0 153 2 153 4 0 3 -60 118 -134 255 l-134 250 49 31 c131
84 200 237 186 413 -14 193 -126 324 -316 373 -52 13 -123 16 -368 18 l-303 1
0 -672z m608 406 c115 -56 138 -226 41 -314 -51 -46 -92 -55 -246 -55 l-133 0
0 195 0 195 147 0 c129 0 152 -3 191 -21z"/>
<path d="M6430 2840 c-1 -3 99 -305 222 -672 l223 -668 167 0 167 0 76 238
c43 130 142 432 221 669 79 238 144 434 144 435 0 2 -64 1 -142 -2 l-141 -5
-143 -465 c-79 -256 -152 -492 -162 -525 l-19 -60 -10 35 c-6 19 -60 199 -121
400 -61 201 -128 423 -149 493 l-39 128 -147 2 c-81 1 -147 0 -147 -3z"/>
<path d="M7814 2841 c-2 -2 -4 -305 -4 -673 l0 -668 435 0 435 0 0 125 0 125
-295 0 -295 0 0 150 0 150 249 0 250 0 3 125 3 125 -252 0 -253 0 0 150 0 150
290 0 290 0 0 120 0 120 -387 1 c-214 0 -405 2 -426 3 -21 1 -40 0 -43 -3z"/>
</g>
</svg>
